<svg version="1.1" viewBox="0.0 0.0 2000.0 2000.0" fill="none" stroke="none" stroke-linecap="square" stroke-miterlimit="10" xmlns:xlink="http://www.w3.org/1999/xlink" xmlns="http://www.w3.org/2000/svg"><clipPath id="p.0"><path d="m0 0l2000.0 0l0 2000.0l-2000.0 0l0 -2000.0z" clip-rule="nonzero"/></clipPath><g clip-path="url(#p.0)"><path fill="#000000" fill-opacity="0.0" d="m0 0l2000.0 0l0 2000.0l-2000.0 0z" fill-rule="evenodd"/><path fill="#ffffff" d="m75.51181 999.99475l0 0c0 -505.9885 413.90747 -916.1732 924.48816 -916.1732l0 0c245.18945 0 480.33667 96.52511 653.7119 268.3409c173.37512 171.81583 270.77625 404.84805 270.77625 647.8323l0 0c0 505.98853 -413.90747 916.1732 -924.48816 916.1732l0 0c-510.58072 0 -924.48816 -410.1847 -924.48816 -916.1732z" fill-rule="evenodd"/><path fill="#0b5394" d="m292.85458 1143.8163l0 0c0 -0.49926758 0.4046936 -0.90393066 0.90390015 -0.90393066l1208.334 0c0.2397461 0 0.4696045 0.095214844 0.63916016 0.2647705c0.16955566 0.1694336 0.2647705 0.39941406 0.2647705 0.63916016l0 332.96387c0 0.4991455 -0.4046631 0.9038086 -0.90393066 0.9038086l-1208.334 0c-0.49920654 0 -0.90390015 -0.4046631 -0.90390015 -0.9038086z" fill-rule="evenodd"/><path fill="#0b5394" d="m184.72397 1304.4738l0 0c0 -96.29761 59.331085 -174.36218 132.51968 -174.36218l0 0c35.146393 0 68.8533 18.37024 93.70557 51.069458c24.852264 32.69934 38.814117 77.04907 38.814117 123.292725l0 0c0 96.29761 -59.331085 174.36218 -132.51968 174.36218l0 0c-73.1886 0 -132.51968 -78.064575 -132.51968 -174.36218z" fill-rule="evenodd"/><path fill="#0b5394" d="m321.12253 1171.8986l0 0c0 -106.02991 76.71796 -191.98419 171.35434 -191.98419l0 0c45.445984 0 89.03064 20.226807 121.16577 56.230896c32.135193 36.00403 50.188538 84.83594 50.188538 135.7533l0 0c0 106.03003 -76.71796 191.98425 -171.35431 191.98425l0 0c-94.63638 0 -171.35434 -85.95422 -171.35434 -191.98425z" fill-rule="evenodd"/><path fill="#0b5394" d="m471.62555 1032.5547l0 0c0 -106.03003 76.71796 -191.98425 171.35431 -191.98425l0 0c45.445984 0 89.03064 20.226807 121.16583 56.230835c32.135193 36.00403 50.188538 84.836 50.188538 135.75342l0 0c0 106.02991 -76.71796 191.98425 -171.35437 191.98425l0 0c-94.63635 0 -171.35431 -85.954346 -171.35431 -191.98425z" fill-rule="evenodd"/><path fill="#0b5394" d="m774.0265 1000.0014l0 0c0 -156.44879 122.758545 -283.27557 274.18896 -283.27557l0 0c72.71948 0 142.46045 29.845032 193.88086 82.96948c51.42041 53.12451 80.308105 125.17676 80.308105 200.30609l0 0c0 156.44879 -122.758545 283.27557 -274.18896 283.27557l0 0c-151.43042 0 -274.18896 -126.82678 -274.18896 -283.27557z" fill-rule="evenodd"/><path fill="#0b5394" d="m1234.0658 1111.9131l0 0c0 -106.03003 83.416016 -191.98431 186.31494 -191.98431l0 0c49.41382 0 96.80371 20.226868 131.74463 56.230896c34.940796 36.00403 54.570312 84.83594 54.570312 135.75342l0 0c0 106.02991 -83.416016 191.98425 -186.31494 191.98425l0 0c-102.898926 0 -186.31494 -85.954346 -186.31494 -191.98425z" fill-rule="evenodd"/><path fill="#0b5394" d="m1322.4105 1311.4678l0 0c0 -92.4447 76.717896 -167.38586 171.35425 -167.38586l0 0c45.446045 0 89.03064 17.635254 121.16589 49.026123c32.13513 31.390991 50.188477 73.96619 50.188477 118.35974l0 0c0 92.44458 -76.717896 167.38574 -171.35437 167.38574l0 0c-94.63635 0 -171.35425 -74.94116 -171.35425 -167.38574z" fill-rule="evenodd"/><path fill="#000000" fill-opacity="0.0" d="m1557.4957 782.0495l0 0c89.67261 0 172.90186 45.285645 219.76929 119.578064c46.86731 74.29242 50.637573 166.91516 9.955444 244.573l-229.72473 -113.647095z" fill-rule="evenodd"/><path fill="#000000" fill-opacity="0.0" d="m1557.4957 782.0495l0 0c89.67261 0 172.90186 45.285645 219.76929 119.578064c46.86731 74.29242 50.637573 166.91516 9.955444 244.573" fill-rule="evenodd"/><path stroke="#0b5394" stroke-width="24.0" stroke-linejoin="round" stroke-linecap="butt" d="m1557.4957 782.0495l0 0c89.67261 0 172.90186 45.285645 219.76929 119.578064c46.86731 74.29242 50.637573 166.91516 9.955444 244.573" fill-rule="evenodd"/><path fill="#000000" fill-opacity="0.0" d="m1539.9601 901.4573l0 0c54.64319 0 105.36035 27.598938 133.92114 72.87628c28.560791 45.277344 30.861084 101.72699 6.0739746 149.0578l-139.99512 -69.25696z" fill-rule="evenodd"/><path fill="#000000" fill-opacity="0.0" d="m1539.9601 901.4573l0 0c54.64319 0 105.36035 27.598938 133.92114 72.87628c28.560791 45.277344 30.861084 101.72699 6.0739746 149.0578" fill-rule="evenodd"/><path stroke="#0b5394" stroke-width="24.0" stroke-linejoin="round" stroke-linecap="butt" d="m1539.9601 901.4573l0 0c54.64319 0 105.36035 27.598938 133.92114 72.87628c28.560791 45.277344 30.861084 101.72699 6.0739746 149.0578" fill-rule="evenodd"/><path fill="#0b5394" d="m663.8143 1146.0234l0 0c0 -106.03003 76.71796 -191.98425 171.35431 -191.98425l0 0c45.445984 0 89.03064 20.226868 121.16583 56.230896c32.13513 36.003967 50.188477 84.836 50.188477 135.75336l0 0c0 106.02991 -76.717896 191.98425 -171.35431 191.98425l0 0c-94.63635 0 -171.35431 -85.954346 -171.35431 -191.98425z" fill-rule="evenodd"/><path fill="#0b5394" d="m430.33688 499.68576l157.05508 0l157.05511 157.05515l0 827.57477l-314.1102 0z" fill-rule="evenodd"/><path stroke="#ffffff" stroke-width="12.0" stroke-linejoin="round" stroke-linecap="butt" d="m430.33688 499.68576l157.05508 0l157.05511 157.05515l0 827.57477l-314.1102 0z" fill-rule="evenodd"/></g></svg>